<svg xmlns="http://www.w3.org/2000/svg" width="28" height="25.756" viewBox="0 0 28 25.756">
  <path id="heart" d="M19.575,0A7.439,7.439,0,0,0,13.5,3.162,7.439,7.439,0,0,0,7.425,0C3.469,0,0,3.68,0,7.875c0,4.088,2.308,8.3,6.676,12.177A35.915,35.915,0,0,0,13.293,24.7a.451.451,0,0,0,.413,0,35.919,35.919,0,0,0,6.615-4.648C24.692,16.173,27,11.963,27,7.875,27,3.68,23.531,0,19.575,0ZM13.5,23.788C11.847,22.876.9,16.5.9,7.875.9,4.159,3.949.9,7.425.9a6.538,6.538,0,0,1,5.683,3.326.469.469,0,0,0,.784,0A6.538,6.538,0,0,1,19.575.9C23.051.9,26.1,4.159,26.1,7.875c0,8.629-10.947,15-12.6,15.913Zm0,0" transform="translate(0.5 0.5)" stroke="#000" stroke-width="1"/>
</svg>
