<svg id="share" xmlns="http://www.w3.org/2000/svg" width="23.203" height="24.75" viewBox="0 0 23.203 24.75">
  <g id="Group_255" data-name="Group 255">
    <path id="Path_213" data-name="Path 213" d="M34.853,16.049a4.347,4.347,0,0,0-3.5,1.768l-6.829-3.49a4.35,4.35,0,0,0-.141-2.858l7.157-4.3A4.333,4.333,0,1,0,30.8,5.923l-7.175,4.311a4.35,4.35,0,1,0,.267,5.4l6.809,3.48a4.351,4.351,0,1,0,4.155-3.061Zm0-14.6a2.9,2.9,0,1,1-2.9,2.9A2.9,2.9,0,0,1,34.853,1.45ZM20.351,16a2.9,2.9,0,1,1,2.9-2.9A2.9,2.9,0,0,1,20.351,16Zm14.5,7.3a2.9,2.9,0,1,1,2.9-2.9A2.9,2.9,0,0,1,34.853,23.3Z" transform="translate(-16)"/>
  </g>
</svg>
