<svg xmlns="http://www.w3.org/2000/svg" width="24.751" height="23.832" viewBox="0 0 24.751 23.832">
  <g id="Subtraction_1" data-name="Subtraction 1" transform="translate(0 0)" fill="#fff">
    <path d="M 0.7502458095550537 22.09015274047852 L 0.7518011927604675 1.999861001968384 C 0.7518011927604675 1.31066107749939 1.312461137771606 0.7500010132789612 2.001611232757568 0.7500010132789612 L 22.75021171569824 0.7500010132789612 C 23.43985176086426 0.7500010132789612 24.00091171264648 1.31066107749939 24.00091171264648 1.99980103969574 L 24.00091171264648 22.08672904968262 L 12.89110088348389 11.58516120910645 L 12.37583160400391 11.09810066223145 L 11.86063098907471 11.58523082733154 L 0.7502458095550537 22.09015274047852 Z" stroke="none"/>
    <path d="M 1.500380635261536 20.34872627258301 L 11.34535121917725 11.04026126861572 L 12.37576103210449 10.06600093841553 L 13.40630149841309 11.04012107849121 L 23.25091171264648 20.34575653076172 L 23.25091171264648 1.99980103969574 C 23.25091171264648 1.724210977554321 23.02630043029785 1.500001072883606 22.75021171569824 1.500001072883606 L 2.001611232757568 1.500001072883606 C 1.726011157035828 1.500001072883606 1.501801133155823 1.724210977554321 1.501801133155823 1.999920964241028 L 1.500380635261536 20.34872627258301 M 0.0001111694364226423 23.8315601348877 L 0.0001111694364226423 23.8292407989502 L 0.001801169477403164 1.99980103969574 C 0.001801169477403164 0.8971109986305237 0.89891117811203 1.021118123389897e-06 2.001611232757568 1.021118123389897e-06 L 22.75021171569824 1.021118123389897e-06 C 23.85339164733887 1.021118123389897e-06 24.75091171264648 0.8971109986305237 24.75091171264648 1.99980103969574 L 24.75091171264648 23.82770156860352 L 12.375901222229 12.13020133972168 L 0.001801169477403164 23.82997131347656 L 0.0001111694364226423 23.8315601348877 Z" stroke="none" fill="#000"/>
  </g>
</svg>
